<svg width="18" height="20" viewBox="0 0 18 20" fill="none" xmlns="http://www.w3.org/2000/svg"><path d="M2.430 0.088 L 0.855 0.105 0.716 0.187 C 0.559 0.279,0.263 0.589,0.105 0.827 L 0.000 0.985 0.000 8.073 L 0.000 15.162 0.118 15.361 C 0.279 15.631,0.469 15.836,0.718 16.006 L 0.926 16.148 1.926 16.176 C 2.475 16.192,2.935 16.214,2.947 16.225 C 2.958 16.237,2.983 16.974,3.001 17.865 C 3.037 19.660,3.026 19.576,3.248 19.793 L 3.375 19.917 3.573 19.892 C 3.682 19.878,3.802 19.850,3.839 19.830 C 3.929 19.782,4.395 19.405,6.120 17.985 C 6.904 17.340,7.718 16.674,7.929 16.506 L 8.313 16.200 8.919 16.198 C 10.435 16.193,12.560 16.143,12.674 16.109 C 12.740 16.089,12.855 16.032,12.929 15.981 C 13.383 15.672,16.020 13.491,16.797 12.782 C 17.146 12.463,17.473 12.090,17.569 11.902 L 17.641 11.759 17.633 6.382 L 17.625 1.005 17.539 0.859 C 17.424 0.663,17.072 0.297,16.881 0.174 L 16.726 0.075 10.366 0.073 C 6.867 0.073,3.296 0.079,2.430 0.088 M10.260 1.200 C 13.420 1.216,16.094 1.237,16.203 1.248 L 16.402 1.267 16.421 2.111 C 16.431 2.575,16.448 4.908,16.459 7.294 L 16.478 11.634 14.592 13.202 C 13.554 14.065,12.644 14.821,12.570 14.882 C 12.454 14.977,12.406 14.996,12.240 15.013 C 12.133 15.023,11.219 15.052,10.209 15.076 C 8.315 15.122,7.989 15.143,7.822 15.228 C 7.569 15.359,7.186 15.655,5.730 16.847 C 4.312 18.008,4.260 18.048,4.231 18.002 C 4.201 17.953,4.175 17.416,4.151 16.326 L 4.131 15.448 3.971 15.302 C 3.783 15.130,3.860 15.142,2.550 15.075 C 2.080 15.051,1.592 15.023,1.467 15.013 L 1.238 14.994 1.219 14.675 C 1.181 14.053,1.135 5.922,1.156 3.563 L 1.177 1.170 2.846 1.171 C 3.764 1.171,7.100 1.184,10.260 1.200 M7.899 4.609 C 7.830 4.634,7.715 4.705,7.644 4.769 L 7.515 4.883 7.507 7.320 L 7.499 9.757 7.609 9.892 C 7.726 10.035,7.910 10.138,8.048 10.139 C 8.186 10.140,8.320 10.067,8.485 9.900 L 8.640 9.742 8.640 7.346 L 8.640 4.950 8.529 4.828 C 8.415 4.701,8.172 4.558,8.078 4.562 C 8.049 4.564,7.968 4.585,7.899 4.609 M12.399 4.609 C 12.330 4.634,12.215 4.705,12.144 4.769 L 12.015 4.883 12.007 7.320 L 11.999 9.757 12.109 9.892 C 12.226 10.035,12.410 10.138,12.548 10.139 C 12.686 10.140,12.820 10.067,12.985 9.900 L 13.140 9.742 13.140 7.346 L 13.140 4.950 13.029 4.828 C 12.915 4.701,12.672 4.558,12.578 4.562 C 12.549 4.564,12.468 4.585,12.399 4.609 " fill="#DAC5A7" stroke="none" fill-rule="evenodd"></path></svg>